HIERARCHY
ROOT Hips
{
	OFFSET 0.000000 0.000000 0.000000
	CHANNELS 6 Xposition Yposition Zposition Zrotation Yrotation Xrotation 
	JOINT LHipJoint
	{
		OFFSET 0.000000 0.000000 0.000000
		CHANNELS 3 Zrotation Yrotation Xrotation
		JOINT LeftUpLeg
		{
			OFFSET 1.363060 -1.794630 0.839290
			CHANNELS 3 Zrotation Yrotation Xrotation
			JOINT LeftLeg
			{
				OFFSET 2.448110 -6.726130 0.000000
				CHANNELS 3 Zrotation Yrotation Xrotation
				JOINT LeftFoot
				{
					OFFSET 2.562200 -7.039590 0.000000
					CHANNELS 3 Zrotation Yrotation Xrotation
					JOINT LeftToeBase
					{
						OFFSET 0.157640 -0.433110 2.322550
						CHANNELS 3 Zrotation Yrotation Xrotation
						End Site
						{
							OFFSET 0.000000 0.000000 0.000000
						}
					}
				}
			}
		}
	}
	JOINT RHipJoint
	{
		OFFSET 0.000000 0.000000 0.000000
		CHANNELS 3 Zrotation Yrotation Xrotation
		JOINT RightUpLeg
		{
			OFFSET -1.305520 -1.794630 0.839290
			CHANNELS 3 Zrotation Yrotation Xrotation
			JOINT RightLeg
			{
				OFFSET -2.542530 -6.985550 0.000000
				CHANNELS 3 Zrotation Yrotation Xrotation
				JOINT RightFoot
				{
					OFFSET -2.568260 -7.056230 0.000000
					CHANNELS 3 Zrotation Yrotation Xrotation
					JOINT RightToeBase
					{
						OFFSET -0.164730 -0.452590 2.363150
						CHANNELS 3 Zrotation Yrotation Xrotation
						End Site
						{
							OFFSET 0.000000 0.000000 0.000000
						}
					}
				}
			}
		}
	}
}
MOTION
Frames: 19
Frame Time: 0.008333
-18.783068 16.173878 -2.405460 -62.128182 86.863203 -40.242630 -12.635762 4.461411 0.551593 -0.548948 6.738601 4.118838 -0.010000 0.855877 17.292533 0.967598 5.073945 15.662145 1.634400 0.000000 -87.545000 6.771425 -1.642410 6.238884 10.183265 11.314681 -57.919060 2.468026 -1.601040 25.421376 -1.366990 -6.299820 2.584638 -2.419799 -0.000000 -32.191800
-18.569165 16.198153 -2.375092 -63.567236 86.547166 -41.693403 -12.810586 4.426022 0.612431 -0.024849 6.799459 3.240919 0.219950 0.946918 19.393034 1.117387 5.246517 17.930767 1.774000 0.000000 -85.072200 6.648568 -1.780681 6.187102 10.822566 11.562663 -57.513874 2.441727 -1.725770 26.542519 -1.396014 -6.336065 2.141325 -2.354400 -0.000000 -31.608700
-18.358527 16.224686 -2.341913 -64.293300 86.234747 -42.442170 -12.950003 4.365137 0.657509 0.414290 6.915380 2.219904 0.423552 1.016878 21.707739 1.286075 5.538273 19.963126 1.953100 -0.000001 -81.565500 6.559461 -1.894635 6.137139 11.431296 11.769654 -56.998089 2.434903 -1.823848 27.500205 -1.410347 -6.264247 1.507256 -2.236100 -0.000001 -30.899200
-18.151647 16.253686 -2.306519 -64.538441 85.921825 -42.717125 -13.059134 4.276267 0.682936 0.779342 7.099044 1.051009 0.594933 1.068705 24.220858 1.466633 5.999331 21.669319 2.202800 -0.000000 -77.262600 6.495530 -1.991273 6.095395 12.015159 11.952352 -56.371661 2.447239 -1.893156 28.268243 -1.417806 -6.129265 0.731177 -2.086100 -0.000000 -30.090800
-17.948924 16.285345 -2.268562 -64.218449 85.619016 -42.428845 -13.128503 4.165420 0.688465 1.036092 7.330045 -0.259357 0.728573 1.109929 26.903772 1.653136 6.697483 22.976897 2.563300 0.000001 -72.382599 6.464453 -2.065637 6.062066 12.550134 12.101709 -55.659188 2.472930 -1.935918 28.857218 -1.421404 -5.950575 -0.143681 -1.916500 0.000000 -29.225500
-17.750479 16.319821 -2.229056 -63.539214 85.315464 -41.779292 -13.167891 4.033363 0.672153 1.204297 7.606368 -1.706857 0.827446 1.148707 29.722344 1.841369 7.659598 23.853939 3.052000 -0.000000 -67.371500 6.453551 -2.125486 6.041623 13.048242 12.239852 -54.860920 2.511018 -1.950594 29.245203 -1.428004 -5.773073 -1.055998 -1.747501 0.000000 -28.359000
-17.557118 16.357241 -2.188152 -62.476461 85.013590 -40.743011 -13.175574 3.886562 0.634556 1.269242 7.903024 -3.276140 0.894898 1.194312 32.637979 2.028993 8.896527 24.286391 3.670400 -0.000000 -62.532101 6.464168 -2.168363 6.031131 13.497893 12.364123 -53.991977 2.556419 -1.939579 29.443820 -1.438900 -5.612727 -1.958384 -1.587600 0.000000 -27.548100
-17.368710 16.397630 -2.146502 -61.113895 84.709223 -39.403544 -13.157139 3.729189 0.576589 1.237256 8.201845 -4.951345 0.937614 1.254125 35.612564 2.214560 10.375200 24.278996 4.388700 0.000000 -58.069900 6.490647 -2.196274 6.028450 13.900234 12.480673 -53.057787 2.606197 -1.904272 29.456414 -1.455409 -5.487142 -2.806579 -1.444700 0.000000 -26.840300
-17.185336 16.440969 -2.104729 -59.550116 84.399797 -37.859703 -13.119163 3.564146 0.501918 1.118586 8.478516 -6.713039 0.964006 1.332111 38.599141 2.398866 12.043179 23.873401 5.162600 -0.000000 -54.228900 6.526750 -2.211722 6.030816 14.258157 12.595152 -52.061705 2.658034 -1.846301 29.288422 -1.477622 -5.407171 -3.565854 -1.323500 0.000000 -26.264500
-17.006943 16.487065 -2.063198 -57.845225 84.086865 -36.174705 -13.066018 3.395125 0.413638 0.920403 8.713572 -8.540522 0.980870 1.430623 41.557853 2.580621 13.819631 23.103540 5.928600 -0.000000 -51.098600 6.569728 -2.215020 6.032994 14.570118 12.705233 -51.006936 2.709560 -1.768322 28.955514 -1.503444 -5.370501 -4.217455 -1.224000 -0.000000 -25.826700
-16.833404 16.535692 -2.022246 -56.078041 83.773949 -34.430205 -13.002604 3.224618 0.316553 0.654855 8.888355 -10.412307 0.994623 1.548787 44.445106 2.758051 15.615009 22.023001 6.622201 -0.000000 -48.707500 6.616258 -2.207578 6.030529 14.837058 12.808800 -49.894675 2.759519 -1.672767 28.472286 -1.530638 -5.371537 -4.753837 -1.145000 0.000000 -25.512800
-16.664515 16.586417 -1.982006 -54.301968 83.467066 -32.684759 -12.932324 3.055566 0.213779 0.334617 8.994153 -12.308809 1.009384 1.685166 47.227223 2.925215 17.323604 20.655243 7.169900 0.000000 -46.714199 6.664919 -2.190125 6.018199 15.059480 12.899301 -48.724704 2.807175 -1.562489 27.858035 -1.556272 -5.397989 -5.180411 -1.083200 0.000001 -25.290100
-16.499702 16.638821 -1.942498 -52.564038 83.174039 -30.988071 -12.857392 2.889545 0.111253 -0.029442 9.016763 -14.208974 1.028558 1.834702 49.861163 3.078601 18.869118 19.073531 7.532000 -0.000000 -45.211601 6.715121 -2.163402 5.991936 15.237759 12.970162 -47.497758 2.852379 -1.439851 27.129691 -1.577946 -5.437315 -5.510034 -1.035000 0.000001 -25.118700
-16.338466 16.692370 -1.903691 -50.911291 82.903201 -29.388667 -12.779724 2.727727 0.015011 -0.423837 8.949619 -16.098452 1.053424 1.991783 52.314777 3.212280 20.179686 17.328998 7.679000 0.000000 -44.040800 6.765937 -2.129386 5.950820 15.374447 13.017256 -46.215790 2.895533 -1.306637 26.300837 -1.594420 -5.480119 -5.759698 -0.996900 0.000000 -24.961000
-16.180159 16.746534 -1.865331 -49.333544 82.662794 -27.877450 -12.698477 2.571704 -0.069844 -0.842967 8.787491 -17.962026 1.083096 2.150436 54.556135 3.321769 21.213424 15.486508 7.612100 0.000000 -43.193801 6.819572 -2.087753 5.891998 15.469298 13.030252 -44.882590 2.936802 -1.164861 25.389117 -1.603937 -5.512609 -5.951806 -0.964200 -0.000000 -24.776100
-16.024148 16.800725 -1.827140 -47.827196 82.459708 -26.449312 -12.613053 2.422258 -0.137976 -1.279935 8.529680 -19.791233 1.115375 2.304716 56.561105 3.403440 21.949514 13.604035 7.352600 -0.000001 -42.642300 6.877129 -2.039439 5.815845 15.524240 13.002909 -43.504334 2.976606 -1.015717 24.406709 -1.606061 -5.526744 -6.106310 -0.933500 -0.000000 -24.535400
-15.869637 16.854495 -1.788911 -46.376522 82.297598 -25.088147 -12.523084 2.280457 -0.185418 -1.728147 8.187026 -21.584610 1.146695 2.450390 58.318339 3.453884 22.380304 11.700351 6.923500 -0.000000 -41.990100 6.939135 -1.986396 5.725472 15.542749 12.930819 -42.087994 3.015324 -0.860043 23.363551 -1.601043 -5.518220 -6.239189 -0.902500 -0.000000 -24.220499
-15.716192 16.907187 -1.750296 -44.935678 82.180231 -23.742822 -12.426202 2.146077 -0.209684 -2.188276 7.756498 -23.335572 1.173436 2.583171 59.809817 3.475113 22.538655 9.841624 6.383100 -0.000000 -41.581400 7.008160 -1.927216 5.618401 15.524174 12.804278 -40.643855 3.052651 -0.698902 22.272055 -1.588694 -5.480968 -6.365323 -0.868500 0.000001 -23.837700
-15.563052 16.958528 -1.711176 -43.475716 82.104716 -22.383174 -12.322632 2.019212 -0.207913 -2.655441 7.258194 -25.048896 1.191693 2.700308 61.032469 3.470465 22.468627 8.040335 5.774700 -0.000000 -40.997400 7.083354 -1.865087 5.500803 15.474021 12.622977 -39.181334 3.088807 -0.532710 21.137905 -1.569626 -5.415639 -6.487917 -0.831800 0.000000 -23.390400
